# xmcd
#
# Track frame offsets:
#	150
#	15753
#	29978
#	45715
#	65160
#	81671
#	94294
#	107096
#	122432
#	135851
#	149358
#	164027
#
# Disc length: 2438 seconds
#
# Revision: 1
# Processed by: cddbd v1.5.2PL0 Copyright (c) Steve Scherf et al.
# Submitted via: audiograbber 1.83.01
#
DISCID=aa09840c
DTITLE=Die Heimatvagabunden - Die bekannten Jägerlieder
DYEAR=2007
DGENRE=Folk
TTITLE0=Auf zum fröhlichen Jagen
TTITLE1=Ich bin ein freier Wildbretschütz
TTITLE2=Jägers Liebeslied
TTITLE3=Das alte Försterhaus
TTITLE4=Ein Tiroler wollte jagen
TTITLE5=Jäger-Boarischer
TTITLE6=Ein Jäger aus Kurpfalz
TTITLE7=Im Wald, im grünen Walde
TTITLE8=Jägerlatein
TTITLE9=Heut' ist Jägerball im Schützenhaus
TTITLE10=Wildschütz Jennerwein
TTITLE11=Abschiedsmelodie
EXTD=
EXTT0=
EXTT1=
EXTT2=
EXTT3=
EXTT4=
EXTT5=
EXTT6=
EXTT7=
EXTT8=
EXTT9=
EXTT10=
EXTT11=
PLAYORDER=
